<svg width="177" height="32" viewBox="0 0 177 32" fill="none" xmlns="http://www.w3.org/2000/svg">
<path d="M61.1546 7.83498H64.8838L59.741 26.6853H52.3565L47.1768 7.83498H50.9059L55.1309 23.1153H56.9612L61.1493 7.83498H61.1546Z" fill="white" style="fill:white;fill-opacity:1;"/>
<path d="M71.5459 0.0842514V3.65949H67.9697V0.0842514H71.5459ZM67.9697 7.68756H71.5459V26.6537H67.9697V7.68756Z" fill="white" style="fill:white;fill-opacity:1;"/>
<path d="M75.3908 26.6905V7.84025H79.12V9.96749H79.1938C79.5736 9.38303 80.254 8.87754 81.2299 8.44577C82.2057 8.01401 83.3028 7.79813 84.5212 7.79813C85.5603 7.79813 86.6047 7.89817 87.6439 8.10352C88.683 8.30888 89.6377 8.73538 90.4974 9.39356C91.3625 10.0517 92.0587 11.0048 92.5915 12.2422C93.1242 13.4848 93.3932 15.154 93.3932 17.2601V26.6853H89.5849V17.5234C89.5849 16.2808 89.4847 15.2645 89.279 14.4642C89.0733 13.6638 88.7673 13.0373 88.3454 12.5844C87.9287 12.1263 87.3959 11.8104 86.7472 11.6366C86.0984 11.4576 85.3441 11.3681 84.4843 11.3681C83.6246 11.3681 82.807 11.4576 82.1213 11.6366C81.4356 11.8157 80.8659 12.1316 80.407 12.5844C79.9481 13.0425 79.6 13.6428 79.3574 14.3905C79.1147 15.1382 78.9934 16.0807 78.9934 17.2233V26.6853H75.375L75.3908 26.6905Z" fill="white" style="fill:white;fill-opacity:1;"/>
<path d="M101.7 23.1153H109.507V26.6905H98.1242V11.4102H94.9277V7.83498H98.1242V0.0789909H101.706V7.83498H108.062V11.4102H101.706V23.1153H101.7Z" fill="white" style="fill:white;fill-opacity:1;"/>
<path d="M119.824 7.95083C121.475 7.95083 122.878 8.22989 124.033 8.78803C125.188 9.34617 126.117 10.1255 126.813 11.1259C127.509 12.1263 127.995 13.311 128.258 14.6801C128.522 16.0491 128.596 17.5287 128.469 19.1294H114.497C114.497 20.0192 114.634 20.7406 114.913 21.2935C115.193 21.8516 115.573 22.2834 116.058 22.5835C116.538 22.8889 117.087 23.0943 117.693 23.2101C118.3 23.3259 118.949 23.3786 119.634 23.3786C120.114 23.3786 120.61 23.3575 121.116 23.3207C121.623 23.2838 122.092 23.1943 122.525 23.0574C122.957 22.9205 123.342 22.7099 123.685 22.4308C124.028 22.1517 124.26 21.7726 124.392 21.2882H128.047C127.794 22.3044 127.404 23.1574 126.887 23.8525C126.365 24.5475 125.742 25.1109 125.02 25.5427C124.297 25.9744 123.485 26.2904 122.583 26.4905C121.681 26.6906 120.721 26.7959 119.708 26.7959C116.638 26.7959 114.397 25.9955 112.988 24.4001C111.58 22.8047 110.873 20.4615 110.873 17.3707C110.873 16.0017 111.058 14.7433 111.427 13.5901C111.796 12.437 112.345 11.4418 113.083 10.6046C113.816 9.76741 114.745 9.11449 115.863 8.64587C116.981 8.17724 118.3 7.94557 119.824 7.94557V7.95083ZM124.925 15.7805C124.898 15.4751 124.835 15.0645 124.735 14.5432C124.635 14.0219 124.413 13.5164 124.07 13.0215C123.727 12.5265 123.226 12.1053 122.567 11.7472C121.908 11.3944 121.006 11.2154 119.861 11.2154C118.822 11.2154 117.957 11.3681 117.271 11.6735C116.586 11.9789 116.032 12.358 115.615 12.8161C115.198 13.2742 114.903 13.7639 114.739 14.301C114.576 14.8328 114.491 15.3277 114.491 15.7805H124.925Z" fill="white" style="fill:white;fill-opacity:1;"/>
<path d="M143.471 7.83498H147.053V26.6853H131.593V7.83498H135.169V23.1153H143.471V7.83498Z" fill="white" style="fill:white;fill-opacity:1;"/>
<path d="M176.136 7.83498V26.6853H172.555V11.405H165.281V26.6853H161.7V11.405H154.426V26.6853H150.85V7.83498H176.131H176.136Z" fill="white" style="fill:white;fill-opacity:1;"/>
<path d="M34.7861 31.7401H25.9036V8.86703H22.9814V0H34.7861V31.7401Z" fill="url(#paint0_linear_84_2655)" style=""/>
<path d="M34.8233 31.9455H9.76867V9.04078H0V0.173775H18.6512V23.0785H34.8233V31.9455Z" fill="url(#paint1_linear_84_2655)" style=""/>
<defs>
<linearGradient id="paint0_linear_84_2655" x1="28.8838" y1="2.4537" x2="28.8838" y2="30.35" gradientUnits="userSpaceOnUse">
<stop stop-color="#FFAE00" style="stop-color:#FFAE00;stop-color:color(display-p3 1.0000 0.6824 0.0000);stop-opacity:1;"/>
<stop offset="0.46" stop-color="#3CAE66" style="stop-color:#3CAE66;stop-color:color(display-p3 0.2353 0.6824 0.4000);stop-opacity:1;"/>
<stop offset="1" stop-color="#009086" style="stop-color:#009086;stop-color:color(display-p3 0.0000 0.5647 0.5255);stop-opacity:1;"/>
</linearGradient>
<linearGradient id="paint1_linear_84_2655" x1="0" y1="16.0596" x2="34.8233" y2="16.0596" gradientUnits="userSpaceOnUse">
<stop stop-color="#3CAE66" style="stop-color:#3CAE66;stop-color:color(display-p3 0.2353 0.6824 0.4000);stop-opacity:1;"/>
<stop offset="1" stop-color="#009086" style="stop-color:#009086;stop-color:color(display-p3 0.0000 0.5647 0.5255);stop-opacity:1;"/>
</linearGradient>
</defs>
</svg>
